<mxfile host="app.diagrams.net" modified="2023-09-16T04:45:14.508Z" agent="Mozilla/5.0 (Macintosh; Intel Mac OS X 10_15_7) AppleWebKit/605.1.15 (KHTML, like Gecko) Version/16.3 Safari/605.1.15" version="21.7.5" etag="U82Kd2QYcJ7vdZHnHLrv" type="github">
  <diagram name="Page-1" id="8qj4BiH7MQ5zRTo2g0jJ">
    <mxGraphModel>
      <root>
        <mxCell id="0" />
        <mxCell id="1" parent="0" />
      </root>
    </mxGraphModel>
  </diagram>
</mxfile>
